<?xml version="1.0" encoding="UTF-8"?>
<svg width="115px" height="36px" viewBox="0 0 115 36" version="1.1" xmlns="http://www.w3.org/2000/svg" xmlns:xlink="http://www.w3.org/1999/xlink">
    <!-- Generator: Sketch 53 (72520) - https://sketchapp.com -->
    <title>bb-logo-red</title>
    <desc>Created with Sketch.</desc>
    <g id="Symbols" stroke="none" stroke-width="1" fill="none" fill-rule="evenodd">
        <g id="Footer-02" transform="translate(-663.000000, -232.000000)" fill="#C82029" fill-rule="nonzero">
            <g id="Group-4" transform="translate(120.000000, 36.000000)">
                <path d="M642.608302,196 L643.427567,196 C644.262261,196.161395 645.086155,196.570162 645.552103,197.289651 C646.176966,198.167519 646.099823,199.331977 645.70639,200.285263 L645.903878,200.21437 C645.760391,200.292805 645.646218,200.399898 645.562903,200.535651 C644.572379,202.232561 642.832018,203.362326 641.070058,204.196451 C640.830912,204.875215 640.648853,205.570571 640.42668,206.25386 C641.014514,205.630905 641.653263,205.053202 642.332127,204.526783 C643.179165,203.915895 644.112603,203.311041 645.191071,203.226573 C645.80822,203.268807 646.454683,203.591597 646.692286,204.181367 C646.973089,204.876723 646.803373,205.658056 646.53337,206.330786 C645.940907,207.735073 644.626379,208.876905 643.075792,209.134835 C643.821,209.608462 643.950601,210.539123 644.532264,211.14096 C644.748266,211.359673 645.038326,211.086659 645.245071,210.98409 C645.754219,210.608507 646.280339,210.196724 646.613599,209.656729 C647.227663,207.632505 647.815497,205.597721 648.409503,203.567463 C649.688545,203.522212 650.973758,203.492045 652.251256,203.581038 C651.637193,205.514761 651.063244,207.46206 650.501639,209.410866 C650.338094,210.067005 650.10512,210.784986 650.359694,211.445649 C650.564896,211.699055 650.895071,211.554252 651.143474,211.444141 C651.708165,211.089675 652.118569,210.511972 652.286742,209.878459 C652.877663,207.768258 653.559612,205.683698 654.133561,203.567463 C655.42186,203.473945 656.711701,203.585564 658,203.520704 C657.193078,206.735028 656.182496,209.898068 655.307687,213.0958 C654.786196,215.466948 653.774072,217.824522 651.92571,219.500314 C650.950615,220.381199 649.620658,221.026779 648.264473,220.8322 C648.702649,221.676884 648.850765,222.643745 648.662534,223.574406 C649.972433,223.723734 651.296218,223.627199 652.601488,223.471837 C652.163312,224.966626 651.766794,226.473482 651.319361,227.965254 C651.265361,228.155308 651.220617,228.351395 651.219074,228.552008 C651.384162,228.79938 651.768337,228.746587 651.982796,228.5867 C653.059722,227.861177 653.88053,226.846048 654.650423,225.826394 C655.119457,225.830919 655.590033,225.806785 656.059066,225.766059 C654.824768,227.44336 653.500983,229.132728 651.703536,230.270035 C650.896614,230.784387 649.909175,231.15997 648.938708,230.926173 C648.296873,230.70746 647.747611,230.051322 647.921955,229.355966 C648.235159,228.019555 648.640934,226.704262 648.989623,225.376901 C648.701106,225.343717 648.412589,225.298466 648.124072,225.287908 C647.275492,226.722362 646.434626,228.196034 645.229642,229.384625 C644.509121,230.113165 643.645112,230.83718 642.574358,230.948799 C641.682578,231.018183 640.912685,230.448022 640.417422,229.775291 C639.74473,230.416346 638.882264,230.886956 637.939569,230.988016 C636.94133,231.093602 635.964692,230.490256 635.537316,229.621438 C635.193255,228.865748 635.213313,228.019555 635.285828,227.21258 C634.90011,227.25029 634.407933,227.045152 634.108616,227.354367 C633.201407,228.794854 632.10751,230.339419 630.396464,230.906564 C629.274796,231.238404 628.305872,230.393721 627.613122,229.642555 C626.730598,230.256459 625.800246,231.042317 624.649263,230.986508 C623.95497,230.963882 623.411879,230.473664 622.955189,230.013613 C622.310268,230.455563 621.620604,230.888464 620.81831,230.966899 C619.815443,231.12226 618.897434,230.567182 618.201598,229.918586 C617.332961,230.392212 616.422666,230.892989 615.408998,230.959357 C614.526475,230.998575 613.787439,230.452547 613.103947,229.983445 C612.388054,230.517406 611.542559,230.954832 610.623007,230.966899 C610.073745,230.986508 609.502882,230.725561 609.218993,230.257968 C608.913504,229.696856 608.848704,229.033176 608.989105,228.417763 C609.357852,226.473482 609.971915,224.58501 610.515006,222.682963 C611.531759,222.667879 612.548512,222.679946 613.565266,222.670896 C613.096232,224.290879 612.654971,225.918404 612.184394,227.536879 C612.070222,227.965254 611.909763,228.42078 612.048622,228.862731 C612.226052,229.022617 612.519198,229.152337 612.742914,228.993959 C613.199605,228.764687 613.491208,228.324245 613.608466,227.846093 C614.1099,226.123541 614.585104,224.394956 615.072652,222.669387 C616.08632,222.654304 617.10153,222.661846 618.11674,222.643745 C617.544334,224.687579 616.933357,226.722362 616.411866,228.779771 C616.657182,229.450993 617.417819,229.063343 617.85908,228.831055 C617.610678,226.62281 618.607374,224.25317 620.53905,223.028378 C621.617518,222.320955 623.252963,222.331514 624.170973,223.296867 C624.609148,221.851854 625.081268,220.415891 625.468529,218.957303 C626.442081,218.925628 627.417177,218.884902 628.39073,218.82155 C627.650151,221.797553 626.671969,224.717746 625.908247,227.687715 C625.828018,228.176425 625.71076,228.980383 626.351052,229.125186 C626.898772,228.990942 627.19346,228.416255 627.367805,227.930562 C627.910896,226.176334 628.429301,224.414565 628.969307,222.658829 C629.927431,222.669387 630.885555,222.672404 631.845222,222.664862 C631.379274,224.293896 630.88864,225.915387 630.402636,227.536879 C630.252977,228.039164 630.128004,228.713403 630.680353,229.028651 C630.706581,228.9653 630.757496,228.837089 630.783725,228.773737 L630.735896,229.067868 C631.868365,228.805413 632.511743,227.82196 633.147406,226.9637 C632.315798,226.585101 631.763449,225.707233 631.93008,224.802214 C632.07511,224.088758 632.184654,223.322509 632.517914,222.678438 C633.705926,222.642237 634.897024,222.687488 636.086579,222.666371 C635.787261,223.805186 635.349086,224.9078 634.835309,225.969688 C635.065197,226.004381 635.295085,226.04209 635.524973,226.079799 C635.886005,225.226065 636.25938,224.346688 636.939787,223.684517 C638.070713,222.470283 640.318679,222.013249 641.546805,223.333068 C641.642463,223.102288 641.744293,222.874525 641.853837,222.649779 C642.700874,222.681454 643.549454,222.636203 644.399577,222.654304 C644.314719,222.035874 644.302376,221.358619 644.698894,220.833708 C645.044498,220.242429 645.690961,219.901539 646.368283,219.814054 C645.811305,218.583229 646.737029,217.40218 647.434408,216.445877 C643.908943,216.378 640.381936,216.373475 636.856472,216.405151 C628.582046,216.506211 620.302991,216.727941 612.054793,217.415755 C612.097994,216.942129 612.039364,216.470011 611.915935,216.011468 C624.690921,215.157734 637.504479,215.180359 650.304151,215.190918 C649.548143,215.744487 648.78905,216.343308 648.313845,217.157825 C648.003728,217.619384 647.945098,218.203121 648.21973,218.694848 C648.989623,218.912052 649.545057,218.210663 649.872146,217.632959 C650.802499,215.957167 651.158902,214.062661 651.695822,212.249608 C650.929014,212.967589 649.969347,213.5106 648.918651,213.699146 C648.292245,213.804731 647.557837,213.76853 647.078004,213.309988 C646.568856,212.857478 646.482455,212.147039 646.448512,211.513526 C645.740333,212.21039 645.001297,212.914796 644.063231,213.308479 C643.276366,213.69462 642.244184,213.875624 641.475833,213.358255 C640.773826,212.757926 640.690511,211.788048 640.682797,210.937331 C640.679711,210.303818 640.182906,209.839242 639.792559,209.388241 C640.954342,209.033775 642.125383,208.587299 643.057278,207.80295 C643.452253,207.478652 643.71917,206.99145 643.58494,206.480114 C642.54813,206.226709 641.625492,206.878323 640.818569,207.419825 C640.449823,207.712448 639.945303,207.949261 639.840388,208.442496 C639.400669,210.109239 638.945522,211.772964 638.496546,213.438199 C637.219047,213.406523 635.941549,213.555851 634.667136,213.468366 C634.872338,212.641782 635.177827,211.836316 635.296628,210.990123 C633.958957,212.160614 632.534886,213.44574 630.706581,213.767022 C629.285596,214.027969 627.96644,213.142559 627.176489,212.056537 C626.366481,212.765468 625.388299,213.27077 624.377718,213.650878 C623.652567,213.89825 622.851816,214.088304 622.089637,213.893725 C621.429288,213.748922 621.049741,213.076191 621.023512,212.454745 C620.94174,211.314422 621.35523,210.225383 621.642204,209.139361 C621.037398,209.232879 620.426421,209.275113 619.818529,209.317348 C619.044007,210.673367 618.047311,211.923801 616.794498,212.887646 C615.85026,213.607135 614.768706,214.245173 613.560637,214.391485 C612.752172,214.518187 611.824905,214.126013 611.547188,213.33563 C611.130612,212.225474 611.374386,211.017274 611.554902,209.886001 C611.115184,209.964436 610.675465,210.035329 610.235746,210.103205 C609.586197,212.175698 607.950752,213.991768 605.816959,214.67204 C604.690662,215.017456 603.343734,215.040081 602.368638,214.302491 C601.321028,213.525684 600.907538,212.168156 601.017082,210.925264 C601.16674,208.983999 602.157265,207.179995 603.494935,205.771183 C604.412945,204.876723 605.574728,204.101424 606.90777,204.030531 C608.134354,203.968688 609.512139,204.262819 610.294375,205.26739 C611.065812,206.146766 610.979411,207.395692 610.806609,208.465122 C611.20467,208.412329 611.602731,208.355011 612.000793,208.297693 C612.403482,206.884356 612.792286,205.468002 613.164119,204.047123 C614.430817,203.941538 615.70523,203.983772 616.973471,203.89327 C616.343979,205.976321 615.794717,208.081997 615.177568,210.168065 C615.069566,210.616049 614.870536,211.06705 614.927622,211.534643 C615.064938,211.976594 615.6034,211.741289 615.878032,211.57386 C616.82227,210.99314 617.64925,210.189182 618.183084,209.225337 C617.314446,208.934223 616.907128,208.006579 616.922557,207.163403 C616.862385,205.915986 617.484162,204.748512 618.300342,203.829919 C619.449782,203.854052 620.594594,203.715283 621.744034,203.716791 C621.632947,205.160296 621.07597,206.514807 620.480421,207.824067 C621.035855,207.819542 621.594375,207.783341 622.129752,207.629488 C622.466098,206.293077 622.888845,204.977784 623.248335,203.645898 C624.498062,203.611206 625.744703,203.523721 626.995973,203.517687 C626.406595,205.908444 625.667559,208.263001 625.030353,210.641691 C624.970181,210.944873 624.874523,211.341572 625.121382,211.585927 C625.681445,211.628161 626.239965,211.28878 626.621055,210.916214 C626.719798,210.168065 626.647283,209.403324 626.823171,208.664226 C627.207346,206.626426 628.407701,204.658011 630.294634,203.63534 C631.55979,202.935459 633.21375,202.706187 634.512849,203.457353 L634.511306,203.271824 C635.020454,204.032039 635.878291,204.662536 635.935377,205.652023 C636.100465,207.164912 634.83068,208.644617 633.309408,208.843721 C632.729288,208.938748 632.101338,208.698918 631.769621,208.219258 C631.459503,207.834626 631.434817,207.324798 631.380817,206.857206 C631.997966,206.774245 632.704602,206.730503 633.159749,206.259893 C633.567068,205.750066 632.997747,204.974767 632.382141,205.060744 C631.857565,205.11052 631.411674,205.45141 631.101557,205.851127 C630.294634,206.916032 629.820973,208.246409 629.89503,209.578295 C629.913545,210.121306 630.106404,210.695992 630.563094,211.035374 C631.245044,211.563302 632.235568,211.442633 632.957633,211.059508 C634.033015,210.501413 634.963367,209.704997 635.828919,208.878414 C636.489268,206.949216 636.981445,204.9627 637.573908,203.009368 C638.109285,201.31095 638.414774,199.481305 639.513299,198.015175 C640.233821,196.994012 641.321546,196.164412 642.608302,196 Z M642.60213,199.176615 C642.103782,200.0756 641.90938,201.096763 641.590006,202.062116 C642.53733,201.621673 643.513968,201.105813 644.11106,200.230962 C644.452035,199.716609 644.484435,198.956394 644.04163,198.494834 C643.469225,198.191653 642.89219,198.733156 642.60213,199.176615 Z M606.946342,206.279502 C605.827759,207.244855 605.107237,208.602383 604.798663,210.018737 C604.678319,210.634149 604.613518,211.299338 604.857292,211.895142 C605.030094,212.320501 605.550042,212.501504 605.988218,212.404969 C607.207087,212.160614 608.189897,211.216378 608.618816,210.092647 C608.155954,209.999128 607.669949,209.792482 607.489433,209.329414 C607.092914,208.412329 607.328974,207.356474 607.76715,206.49369 C607.913723,206.284027 607.691549,206.119615 607.563491,205.979338 C607.350574,206.065314 607.112972,206.116599 606.946342,206.279502 Z M646.078222,221.805095 C645.99645,222.664862 646.843487,223.259158 647.608752,223.446195 C647.631895,222.839833 647.739896,222.155035 647.344921,221.631633 C647.054861,221.197224 646.164623,221.219849 646.078222,221.805095 Z M644.614036,223.289325 C644.171232,224.855007 643.658998,226.40108 643.239337,227.972796 C643.197679,228.259385 643.089678,228.74357 643.459967,228.849156 C643.850314,228.800888 644.194375,228.574633 644.489064,228.32877 C645.511988,227.393584 646.382168,226.29097 646.974632,225.045061 C646.118337,224.568418 645.112384,224.189819 644.614036,223.289325 Z M640.28165,224.111384 C639.727758,224.333113 639.284954,224.76903 638.957865,225.250199 C638.553632,225.944046 638.174085,226.699737 638.226543,227.523303 C638.223457,228.110057 638.511975,228.843122 639.17541,228.951724 C639.750901,228.950216 640.059476,228.374021 640.196792,227.903411 C640.479137,226.915433 640.767655,225.928962 641.053086,224.942492 C641.335432,224.434174 640.846341,223.82932 640.28165,224.111384 Z M622.705244,224.431157 C622.046437,224.805231 621.617518,225.46137 621.342887,226.138625 C621.042027,226.916941 620.867682,227.820451 621.244143,228.604801 C621.379916,228.852172 621.55426,229.187029 621.895235,229.170437 C622.364269,229.239822 622.614214,228.76167 622.75153,228.40268 C623.07399,227.373975 623.345536,226.331696 623.649482,225.298466 C623.742054,225.013385 623.754397,224.704171 623.667996,224.416073 C623.396451,224.17021 622.989132,224.256187 622.705244,224.431157 Z M560.210946,197.471098 C561.948309,196.992151 563.946584,196.659882 565.588791,197.595324 C565.59493,197.524979 565.607209,197.382792 565.613348,197.312447 C565.621021,197.385785 565.639439,197.532463 565.647113,197.605801 C566.204235,198.150603 566.790519,198.743299 566.905627,199.542541 C567.272437,201.245794 566.521933,202.946054 565.484427,204.282614 C563.875984,206.354057 561.641355,207.852261 559.382169,209.17535 C560.298428,209.425301 561.173249,209.848869 561.891523,210.462519 C562.950516,211.365033 563.587447,212.674653 563.817663,214.014206 C564.067831,215.8806 563.783898,217.847274 562.85536,219.511612 C562.095648,220.88559 560.600779,221.931788 558.961641,221.909338 C558.209602,221.936279 557.512815,221.583056 556.937275,221.141527 C555.962694,220.40365 555.58207,219.119475 555.743221,217.956533 C555.948881,216.307162 556.840584,214.777527 558.025429,213.604108 C557.827443,214.268646 557.790609,214.985569 557.996268,215.6531 C558.229554,216.212869 558.961641,216.488263 559.527972,216.245797 C560.387445,215.992853 560.864759,215.142723 561.070419,214.344978 C561.3344,213.318237 561.220827,212.063996 560.352145,211.333603 C559.666102,210.76186 558.843463,210.305365 557.942551,210.164674 C557.403846,212.44865 556.527491,214.638333 555.635787,216.808559 C554.470895,219.534063 552.667536,222.059009 550.156647,223.753281 C549.211227,224.378905 548.150699,224.911733 546.99348,224.997045 C546.104846,225.034463 545.19626,224.715664 544.574677,224.087047 C543.477314,223.08126 543.130456,221.563598 543,220.155197 L543,218.751285 C543.221007,215.751883 544.227819,212.852761 545.619858,210.184131 C546.869163,207.786406 548.502162,205.583252 550.426767,203.65699 C553.220054,201.001831 556.400104,198.535257 560.210946,197.471098 Z M555.638857,201.766648 C552.77497,203.914424 550.567966,206.861441 549.223505,210.124263 C548.465327,211.96222 547.833001,213.886986 547.747053,215.8806 C547.748588,216.715763 547.80384,217.705086 548.515975,218.282816 C549.493625,218.911433 550.759813,218.459427 551.600869,217.812849 C553.325954,216.437375 554.535355,214.53955 555.420919,212.568386 C555.51761,212.315443 555.61737,212.063996 555.712526,211.812549 C554.688832,212.662679 553.272237,213.381099 551.904754,212.990458 C550.633962,212.46661 550.462067,210.615183 551.473483,209.75757 C552.801061,208.594628 554.698041,208.653 556.366339,208.66198 C556.381687,207.976488 556.489121,207.252081 556.206723,206.60251 C556.059385,206.237314 555.680296,205.990357 555.278185,205.991854 C553.899959,205.911031 552.659862,206.629451 551.55636,207.347871 C552.481829,205.343779 553.932189,203.209474 556.242023,202.627255 C556.19598,202.420709 556.501399,202.124361 556.478378,202.504525 C556.987923,202.603308 557.673966,202.357848 558.020825,202.863735 C558.42447,203.014902 558.576413,203.499836 558.677708,203.878503 C558.970849,205.441065 558.550322,207.012608 558.198859,208.530269 C559.509555,207.298479 560.754256,205.967906 561.647494,204.41133 C562.143226,203.583651 562.523849,202.601811 562.319724,201.633441 C562.04807,200.605203 560.909268,200.057408 559.891713,200.031964 C558.307827,200.070879 556.877419,200.86563 555.638857,201.766648 Z M553.562309,209.989559 C553.00979,210.179641 552.960678,211.091136 553.522405,211.294688 C554.002789,211.48926 554.512333,211.260264 554.958952,211.085149 C555.520679,210.832206 556.220536,210.50293 556.182167,209.793491 C555.31195,209.756073 554.380343,209.628853 553.562309,209.989559 Z M626.155361,198.087407 C626.966544,197.925143 627.955333,197.952187 628.571832,198.485948 C629.258349,199.19763 629.044879,200.26373 628.455705,200.971141 C627.746987,201.722677 626.500327,202.196657 625.362964,201.920525 C624.606429,201.792422 624.029208,201.197456 624.0053,200.558366 C623.919912,199.449566 624.876254,198.382043 626.155361,198.087407 Z M653.332521,197.001565 C654.888348,197.012523 656.444174,197.004696 658,197 L658,197.114277 C657.819732,197.309956 657.647584,197.508766 657.501421,197.726362 C656.302883,199.387289 654.634998,200.777395 652.64393,201.466187 C652.26553,201.56794 651.969955,202.028178 651.547706,201.78397 C651.032887,201.871634 650.518067,201.948341 650,202 C651.711734,200.833751 653.088916,199.049155 653.332521,197.001565 Z M600.340547,199.05589 C601.17133,198.897035 602.172706,199.068655 602.687895,199.675711 C603.242319,200.367869 602.989843,201.303983 602.462713,201.953589 C601.616576,202.997498 599.593353,203.414495 598.445268,202.481217 C597.710015,201.770622 597.971021,200.66005 598.60733,199.963637 C599.020163,199.488489 599.666707,199.192052 600.340547,199.05589 Z M596.767187,199.145522 C597.176568,199.093841 597.587506,199.042161 598,199 C597.375811,200.698666 596.152337,202.25861 594.499247,203.316706 C593.526383,203.958636 592.190835,204.20208 591.035851,203.813114 C590.525292,203.648551 590.207749,203.214705 590.047421,202.780858 C589.891763,201.841083 590.145486,200.898589 590.428784,199.995535 C590.486378,199.824173 590.523736,199.575289 590.81326,199.62697 C591.839048,199.537208 592.861722,199.416166 593.889066,199.341365 C593.683598,200.064896 593.302235,200.796588 593.504591,201.555479 C594.468115,201.6398 595.269755,201.014191 595.837907,200.406262 C596.197478,200.015936 596.513464,199.595689 596.767187,199.145522 Z M585.639973,200.393601 C586.997455,200.278549 588.344248,200.015139 589.707838,200 C588.516797,204.385629 587.295215,208.762174 586.10112,213.146289 C586.041568,213.474794 586.00492,213.827522 586.099593,214.151486 C586.377503,214.702528 587.284527,214.513297 587.527316,214.04703 C586.92416,210.925468 588.609942,207.598022 591.355446,206.022102 C592.331184,205.47106 593.473363,205.116819 594.603325,205.292426 C595.690533,205.449866 596.562436,206.458092 596.563963,207.545037 C596.534951,208.297421 596.177638,208.995307 595.74245,209.594792 C594.516288,211.246405 592.801493,212.43932 591.153885,213.63829 C590.799627,214.095474 591.239396,214.858455 591.837971,214.720694 C593.218358,214.62078 594.388022,213.759398 595.408042,212.899531 C595.841703,212.47868 596.39905,212.08962 596.542586,211.470455 C597.043434,209.440379 597.576349,207.41636 598.068035,205.383257 C599.376654,205.257607 600.688327,205.160721 602,205.066862 C600.990668,208.869657 600.017984,212.681536 599.016288,216.487359 C598.541398,218.702124 597.579403,220.880557 595.937903,222.492809 C594.98965,223.446536 593.679505,224.147449 592.296064,224.064187 C591.488293,224.023313 590.553784,223.741737 590.213268,222.936368 C589.807092,222.028057 590.315575,221.066761 590.761452,220.27653 C583.383101,221.737397 576.10095,223.716001 569.064642,226.366756 C566.267221,227.438563 563.512555,228.640561 560.846454,230 C557.885646,229.100772 554.917204,228.163698 551.844927,227.709542 C550.569902,227.526366 549.285714,227.412827 548,227.325024 C549.34832,226.940506 550.664574,226.459101 552.00526,226.053389 C565.691551,221.77373 579.922973,219.601352 594.113166,217.739315 C594.333051,217.721149 594.552935,217.716607 594.774347,217.722662 C593.693247,218.497754 592.522056,219.315234 591.978453,220.570217 C591.804377,220.985013 591.728029,221.611747 592.186121,221.875158 C592.57092,222.040168 592.952664,221.778271 593.206142,221.508806 C593.687139,220.96836 593.998643,220.305293 594.259756,219.639199 C594.945368,217.933088 595.2981,216.124035 595.772989,214.354342 C595.34849,214.64046 594.91941,214.917495 594.473532,215.170308 C594.493383,215.427663 594.354428,215.668366 594.271971,215.317152 C592.966407,215.883332 591.60587,216.429833 590.158297,216.434375 C589.352053,216.428319 588.533593,216.127063 588.020529,215.491245 C586.980658,216.431347 585.633865,217.17919 584.186291,217.106525 C583.509841,217.074734 582.915847,216.665994 582.52036,216.142201 C581.422464,217.192814 579.94435,217.945199 578.392942,217.916435 C577.682898,217.919463 576.957584,217.653025 576.488802,217.109552 C575.508483,217.864964 574.499152,218.774789 573.189006,218.842913 C572.234645,218.855023 571.214625,218.721805 570.435867,218.126861 C569.44944,218.942827 568.417204,219.876873 567.084153,220.026745 C566.29318,220.125145 565.351035,219.979815 564.837971,219.312207 C564.40889,218.711208 564.4547,217.927032 564.581439,217.236716 C565.09603,214.770651 565.690024,212.322753 566.224466,209.86123 C567.531558,209.644749 568.834069,209.401019 570.147268,209.216329 C569.637258,211.493162 569.066169,213.756371 568.524092,216.025635 C568.446216,216.273906 568.478283,216.531261 568.507296,216.784074 C568.591279,216.890044 568.675263,216.997527 568.759247,217.103497 C569.362402,217.389615 570.000679,216.926376 570.208347,216.364737 C570.835935,213.854771 571.472684,211.344805 572.114014,208.836353 C573.413471,208.63501 574.711401,208.415502 576.013912,208.242923 C575.418392,210.531867 574.857991,212.82838 574.27774,215.118837 C574.135731,215.572993 574.149474,216.213352 574.665592,216.42075 C575.148117,216.622092 575.476417,216.096786 575.794028,215.830348 C575.309976,213.589847 576.055141,211.237321 577.435528,209.447949 C578.133356,208.470001 579.13658,207.722158 580.245165,207.257405 C581.376654,206.853207 582.673057,207.031841 583.683916,207.666145 C583.780115,207.281627 583.847302,206.889539 583.975568,206.514104 C584.563454,204.482515 585.073465,202.429732 585.639973,200.393601 Z M592.346454,208.3716 C591.660842,209.434324 591.338649,210.677196 591.140143,211.910986 C592.181541,211.23278 593.201561,210.498562 594.044452,209.581168 C594.427723,209.136095 594.843061,208.624413 594.800305,208.00222 C594.815575,207.461775 594.217,206.969773 593.688666,207.163546 C593.10078,207.375486 592.696132,207.882626 592.346454,208.3716 Z M581.185782,209.575112 C579.8283,211.023868 579.128945,213.116012 579.48473,215.073422 C579.551917,215.065853 579.684764,215.0492 579.750424,215.041631 L579.504581,215.09613 C579.74737,215.916637 581.011707,215.881819 581.390397,215.200585 C581.213268,215.123379 581.201052,214.964424 581.286563,214.814553 L581.445368,215.140031 C581.611809,214.817581 581.759925,214.486047 581.856125,214.136348 C582.247031,212.758742 582.613505,211.373568 583.022735,210.000505 C583.109773,209.688651 583.199864,209.326841 583.002884,209.036181 C582.356973,208.707675 581.639294,209.111874 581.185782,209.575112 Z M601.304087,218.056627 C603.110552,216.600071 605.226696,215.384495 607.582138,215.056579 C608.544022,214.940664 609.67013,214.94219 610.4021,215.662079 C611.268577,216.507035 611.090277,217.908684 610.519403,218.864978 C609.485573,220.629623 607.633752,221.715558 605.874208,222.69473 C606.879885,222.999768 607.768259,223.70288 608.190549,224.653074 C608.820857,226.042522 608.634736,227.682101 607.976276,229.028844 C607.553986,229.92108 606.709405,230.660797 605.691216,230.807215 C604.599517,231.016166 603.457769,230.194089 603.265392,229.140183 C603.026094,227.740058 603.862855,226.397891 604.854455,225.452273 C604.734024,225.943384 604.58544,226.50923 604.871659,226.971362 C605.176647,227.389264 605.813211,227.284026 606.171376,226.992715 C606.678124,226.574813 606.873629,225.897629 606.886141,225.270776 C606.917422,224.221445 605.849184,223.471052 604.885736,223.304806 C604.185047,225.601742 603.262264,227.892577 601.749838,229.80669 C600.759802,230.820942 599.494495,231.650645 598.07122,231.935856 C597.107772,232.140231 595.895642,231.870272 595.453019,230.92313 L595.343537,230.996339 C595.323204,230.489976 595.043241,230.032419 595.027601,229.523005 C594.866505,227.733957 595.431123,225.967788 596.186553,224.358712 C597.364274,221.912308 599.108177,219.714509 601.304087,218.056627 Z M603.165293,218.212197 C600.773878,220.010396 599.159791,222.668802 598.394976,225.494979 C598.232316,226.224019 598.102501,227.009492 598.312082,227.738533 C598.579532,228.51638 599.599285,228.580438 600.242105,228.231169 C601.412006,227.628719 602.14554,226.498554 602.800872,225.420244 C602.886895,225.404992 603.060503,225.371438 603.148089,225.354661 C602.724235,225.10758 603.309185,224.682052 603.382695,224.351086 C602.68357,224.752211 601.870269,225.160962 601.035073,224.950486 C600.187364,224.650023 600.059113,223.405468 600.737906,222.867076 C601.601255,222.150237 602.860306,222.121259 603.92698,222.298181 C603.942621,221.755213 604.124049,221.102432 603.704887,220.657076 C602.721106,220.255951 601.734198,220.844675 600.884925,221.283929 C601.523053,220.074454 602.444272,218.855827 603.831574,218.431824 C604.418088,218.293032 605.306462,218.323536 605.497275,219.015972 C605.772546,220.086655 605.409689,221.175641 605.129726,222.208194 C606.179196,221.271728 607.275587,220.286455 607.81518,218.971741 C608.04353,218.471479 608.088887,217.808022 607.666596,217.39317 C607.173924,216.866979 606.379393,216.758691 605.695908,216.912735 C604.765305,217.153715 603.90352,217.612797 603.165293,218.212197 Z M601.942215,223.111107 C601.74671,223.301756 601.729506,223.705931 601.984444,223.859975 C602.688262,223.977415 603.531278,223.710506 603.848778,223.043998 C603.226291,222.917408 602.527166,222.798443 601.942215,223.111107 Z" id="bb-logo-red"></path>
            </g>
        </g>
    </g>
</svg>